# xmcd
#
# Track frame offsets: 
#        150
#        12174
#        20123
#        33537
#        47144
#        63747
#        85821
#        101495
#        119697
#        138574
#        171326
#        193186
#        217464
#        236036
#        262996
#        283605
#        298429
#
# Disc length: 4197 seconds
#
# Revision: 0
# Processed by: cddbd v1.5.2PL0 Copyright (c) Steve Scherf et al.
# Submitted via: ExactAudioCopyFreeDBPlugin 1.0
#
DISCID=19106311
DTITLE=Red Peters - Rare Recordings 1968 - 1989
DYEAR=2013
DGENRE=Blues
TTITLE0=Relax Your Mind
TTITLE1=Baby It Must Be Love
TTITLE2=Don't Think Twice
TTITLE3=99 Years (And One Dark Day)
TTITLE4=Ain't No More Cane
TTITLE5=Guilty
TTITLE6=Stealin'
TTITLE7=Nobody Knows You
TTITLE8=Caldonia
TTITLE9=City of New Orleans
TTITLE10=Like A Road Leading Home
TTITLE11=The Danger Zone
TTITLE12=I Ain’t Superstitious
TTITLE13=It’s Not The Spotlight
TTITLE14=Jelly Roll Baker
TTITLE15=Sick And Tired
TTITLE16=Tomorrow Night
EXTD=
EXTT0=
EXTT1=
EXTT2=
EXTT3=
EXTT4=
EXTT5=
EXTT6=
EXTT7=
EXTT8=
EXTT9=
EXTT10=
EXTT11=
EXTT12=
EXTT13=
EXTT14=
EXTT15=
EXTT16=
PLAYORDER=
